<svg width="50" height="50" viewBox="0 0 50 50" fill="none" xmlns="http://www.w3.org/2000/svg">
<path d="M47.9164 4.25363H2.0833C0.932811 4.25363 0 5.18634 0 6.33693V43.663C0 44.8136 0.932811 45.7464 2.0833 45.7464H47.9164C49.0671 45.7464 49.9999 44.8136 49.9999 43.663V6.33693C49.9999 5.18634 49.0671 4.25363 47.9164 4.25363ZM9.67088 41.7041H5.49481V37.9865H9.67088V41.7041ZM9.67088 12.0136H5.49481V8.29581H9.67088V12.0136ZM18.3795 41.7041H14.2034V37.9865H18.3795V41.7041ZM18.3795 12.0136H14.2034V8.29581H18.3795V12.0136ZM27.088 41.7041H22.9119V37.9865H27.088V41.7041ZM27.088 12.0136H22.9119V8.29581H27.088V12.0136ZM35.7965 41.7041H31.6204V37.9865H35.7965V41.7041ZM35.7965 12.0136H31.6204V8.29581H35.7965V12.0136ZM44.5051 41.7041H40.329V37.9865H44.5052V41.7041H44.5051ZM44.5051 12.0136H40.329V8.29581H44.5052V12.0136H44.5051Z" fill="#51504E"/>
<path d="M47.9164 4.25363H13.0674C11.4714 8.05021 10.5887 12.2204 10.5887 16.597C10.5887 29.604 18.3799 40.7897 29.5492 45.7463H47.9165C49.0672 45.7463 50 44.8135 50 43.6629V6.33693C49.9999 5.18634 49.0671 4.25363 47.9164 4.25363ZM18.3795 12.0136H14.2034V8.29581H18.3795V12.0136ZM27.088 41.7041H22.9119V37.9865H27.088V41.7041ZM27.088 12.0136H22.9119V8.29581H27.088V12.0136ZM35.7965 41.7041H31.6204V37.9865H35.7965V41.7041ZM35.7965 12.0136H31.6204V8.29581H35.7965V12.0136ZM44.5051 41.7041H40.329V37.9865H44.5052V41.7041H44.5051ZM44.5051 12.0136H40.329V8.29581H44.5052V12.0136H44.5051Z" fill="#6B6968"/>
<path d="M31.1144 23.7946L20.091 18.2829C19.1934 17.8342 18.1404 18.4909 18.1404 19.4886V30.5117C18.1404 31.5143 19.1987 32.1647 20.091 31.7172L31.1144 26.2056C31.5708 25.9773 31.8593 25.5106 31.8593 25.0001C31.8593 24.4896 31.5708 24.0229 31.1144 23.7946Z" fill="#D13330"/>
<path d="M20.6557 19.4884C20.6557 19.1986 20.7492 18.9218 20.9147 18.6947L20.091 18.2828C19.1934 17.834 18.1404 18.4908 18.1404 19.4884V30.5116C18.1404 31.5143 19.1987 32.1647 20.091 31.7172L20.9145 31.3054C20.5574 30.8151 20.6557 31.4422 20.6557 19.4884Z" fill="#D24F4C"/>
</svg>
