<svg id="Flat" height="512" viewBox="0 0 512 512" width="512" xmlns="http://www.w3.org/2000/svg"><path d="m40 80h432v352h-432z" fill="#e9eef2"/><g fill="#606669"><path d="m40 128h128v256h-128z"/><path d="m24 80h32v32h-32z" transform="matrix(-1 0 0 -1 80 192)"/><path d="m24 400h32v32h-32z" transform="matrix(-1 0 0 -1 80 832)"/><path d="m72 80h16v32h-16z"/><path d="m72 400h16v32h-16z"/><path d="m104 80h16v32h-16z"/><path d="m104 400h16v32h-16z"/><path d="m136 80h16v32h-16z"/><path d="m136 400h16v32h-16z"/><path d="m168 80h16v32h-16z"/><path d="m168 400h16v32h-16z"/><path d="m200 80h16v32h-16z"/><path d="m200 400h16v32h-16z"/><path d="m232 80h16v32h-16z"/><path d="m232 400h16v32h-16z"/><path d="m264 80h16v32h-16z"/><path d="m264 400h16v32h-16z"/><path d="m296 80h16v32h-16z"/><path d="m296 400h16v32h-16z"/><path d="m184 128h144v256h-144z"/><path d="m328 80h16v32h-16z"/><path d="m328 400h16v32h-16z"/><path d="m360 80h16v32h-16z"/><path d="m360 400h16v32h-16z"/><path d="m392 80h16v32h-16z"/><path d="m392 400h16v32h-16z"/><path d="m424 80h16v32h-16z"/><path d="m424 400h16v32h-16z"/><path d="m344 128h128v256h-128z"/></g><circle cx="256" cy="256" fill="#e9eef2" r="112"/><path d="m224 200v112l96-56z" fill="#d13330"/><path d="m456 400h32v32h-32z" fill="#606669"/><path d="m456 80h32v32h-32z" fill="#606669"/></svg>